<svg xmlns="http://www.w3.org/2000/svg" xmlns:xlink="http://www.w3.org/1999/xlink" width="375" viewBox="0 0 375 375" height="375" version="1.0"><defs><clipPath id="a"><path d="M 44.082031 44.082031 L 330.582031 44.082031 L 330.582031 330.582031 L 44.082031 330.582031 Z M 44.082031 44.082031"/></clipPath><clipPath id="b"><path d="M 330.582031 187.332031 C 330.582031 189.679688 330.527344 192.019531 330.410156 194.363281 C 330.296875 196.703125 330.125 199.042969 329.894531 201.375 C 329.664062 203.707031 329.378906 206.035156 329.03125 208.351562 C 328.6875 210.671875 328.289062 212.980469 327.832031 215.28125 C 327.375 217.578125 326.859375 219.867188 326.289062 222.140625 C 325.722656 224.414062 325.097656 226.671875 324.414062 228.917969 C 323.734375 231.160156 323 233.386719 322.210938 235.59375 C 321.421875 237.800781 320.578125 239.988281 319.679688 242.152344 C 318.78125 244.320312 317.832031 246.460938 316.828125 248.582031 C 315.828125 250.699219 314.773438 252.792969 313.667969 254.859375 C 312.5625 256.929688 311.410156 258.96875 310.203125 260.980469 C 308.996094 262.988281 307.742188 264.96875 306.441406 266.917969 C 305.140625 268.867188 303.789062 270.785156 302.394531 272.667969 C 300.996094 274.550781 299.554688 276.398438 298.066406 278.210938 C 296.582031 280.023438 295.050781 281.796875 293.476562 283.535156 C 291.902344 285.273438 290.285156 286.96875 288.625 288.625 C 286.96875 290.285156 285.273438 291.902344 283.535156 293.476562 C 281.796875 295.050781 280.023438 296.582031 278.210938 298.066406 C 276.398438 299.554688 274.550781 300.996094 272.667969 302.394531 C 270.785156 303.789062 268.867188 305.140625 266.917969 306.441406 C 264.96875 307.742188 262.988281 308.996094 260.980469 310.203125 C 258.96875 311.410156 256.929688 312.5625 254.859375 313.667969 C 252.792969 314.773438 250.699219 315.828125 248.582031 316.828125 C 246.460938 317.832031 244.320312 318.78125 242.152344 319.679688 C 239.988281 320.578125 237.800781 321.421875 235.59375 322.210938 C 233.386719 323 231.160156 323.734375 228.917969 324.414062 C 226.671875 325.097656 224.414062 325.722656 222.140625 326.289062 C 219.867188 326.859375 217.578125 327.375 215.28125 327.832031 C 212.980469 328.289062 210.671875 328.6875 208.351562 329.03125 C 206.035156 329.378906 203.707031 329.664062 201.375 329.894531 C 199.042969 330.125 196.703125 330.296875 194.363281 330.410156 C 192.019531 330.527344 189.679688 330.582031 187.332031 330.582031 C 184.988281 330.582031 182.644531 330.527344 180.304688 330.410156 C 177.964844 330.296875 175.625 330.125 173.292969 329.894531 C 170.960938 329.664062 168.632812 329.378906 166.316406 329.03125 C 163.996094 328.6875 161.6875 328.289062 159.386719 327.832031 C 157.085938 327.375 154.800781 326.859375 152.527344 326.289062 C 150.253906 325.722656 147.992188 325.097656 145.75 324.414062 C 143.507812 323.734375 141.28125 323 139.074219 322.210938 C 136.867188 321.421875 134.679688 320.578125 132.515625 319.679688 C 130.347656 318.78125 128.207031 317.832031 126.085938 316.828125 C 123.96875 315.828125 121.875 314.773438 119.804688 313.667969 C 117.738281 312.5625 115.699219 311.410156 113.6875 310.203125 C 111.675781 308.996094 109.699219 307.742188 107.75 306.441406 C 105.800781 305.140625 103.882812 303.789062 102 302.394531 C 100.117188 300.996094 98.269531 299.554688 96.457031 298.066406 C 94.644531 296.582031 92.871094 295.050781 91.132812 293.476562 C 89.394531 291.902344 87.699219 290.285156 86.039062 288.625 C 84.382812 286.96875 82.765625 285.273438 81.191406 283.535156 C 79.617188 281.796875 78.085938 280.023438 76.601562 278.210938 C 75.113281 276.398438 73.671875 274.550781 72.273438 272.667969 C 70.878906 270.785156 69.527344 268.867188 68.226562 266.917969 C 66.921875 264.96875 65.667969 262.988281 64.464844 260.980469 C 63.257812 258.96875 62.105469 256.929688 61 254.859375 C 59.894531 252.792969 58.839844 250.699219 57.835938 248.582031 C 56.835938 246.460938 55.886719 244.320312 54.988281 242.152344 C 54.089844 239.988281 53.246094 237.800781 52.457031 235.59375 C 51.667969 233.386719 50.933594 231.160156 50.25 228.917969 C 49.570312 226.671875 48.945312 224.414062 48.375 222.140625 C 47.808594 219.867188 47.292969 217.578125 46.835938 215.28125 C 46.378906 212.980469 45.976562 210.671875 45.632812 208.351562 C 45.289062 206.035156 45.003906 203.707031 44.773438 201.375 C 44.542969 199.042969 44.371094 196.703125 44.257812 194.363281 C 44.140625 192.019531 44.082031 189.679688 44.082031 187.332031 C 44.082031 184.988281 44.140625 182.644531 44.257812 180.304688 C 44.371094 177.964844 44.542969 175.625 44.773438 173.292969 C 45.003906 170.960938 45.289062 168.632812 45.632812 166.316406 C 45.976562 163.996094 46.378906 161.6875 46.835938 159.386719 C 47.292969 157.085938 47.808594 154.800781 48.375 152.527344 C 48.945312 150.253906 49.570312 147.992188 50.25 145.75 C 50.933594 143.507812 51.667969 141.28125 52.457031 139.074219 C 53.246094 136.867188 54.089844 134.679688 54.988281 132.515625 C 55.886719 130.347656 56.835938 128.207031 57.835938 126.085938 C 58.839844 123.96875 59.894531 121.875 61 119.804688 C 62.105469 117.738281 63.257812 115.699219 64.464844 113.6875 C 65.667969 111.675781 66.921875 109.699219 68.226562 107.75 C 69.527344 105.800781 70.878906 103.882812 72.273438 102 C 73.671875 100.117188 75.113281 98.269531 76.601562 96.457031 C 78.085938 94.644531 79.617188 92.871094 81.191406 91.132812 C 82.765625 89.394531 84.382812 87.699219 86.039062 86.039062 C 87.699219 84.382812 89.394531 82.765625 91.132812 81.191406 C 92.871094 79.617188 94.644531 78.085938 96.457031 76.601562 C 98.269531 75.113281 100.117188 73.671875 102 72.273438 C 103.882812 70.878906 105.800781 69.527344 107.75 68.226562 C 109.699219 66.921875 111.675781 65.667969 113.6875 64.464844 C 115.699219 63.257812 117.738281 62.105469 119.804688 61 C 121.875 59.894531 123.96875 58.839844 126.085938 57.835938 C 128.207031 56.835938 130.347656 55.886719 132.515625 54.988281 C 134.679688 54.089844 136.867188 53.246094 139.074219 52.457031 C 141.28125 51.667969 143.507812 50.933594 145.75 50.25 C 147.992188 49.570312 150.253906 48.945312 152.527344 48.375 C 154.800781 47.808594 157.085938 47.292969 159.386719 46.835938 C 161.6875 46.378906 163.996094 45.976562 166.316406 45.632812 C 168.632812 45.289062 170.960938 45.003906 173.292969 44.773438 C 175.625 44.542969 177.964844 44.371094 180.304688 44.257812 C 182.644531 44.140625 184.988281 44.082031 187.332031 44.082031 C 189.679688 44.082031 192.019531 44.140625 194.363281 44.257812 C 196.703125 44.371094 199.042969 44.542969 201.375 44.773438 C 203.707031 45.003906 206.035156 45.289062 208.351562 45.632812 C 210.671875 45.976562 212.980469 46.378906 215.28125 46.835938 C 217.578125 47.292969 219.867188 47.808594 222.140625 48.375 C 224.414062 48.945312 226.671875 49.570312 228.917969 50.25 C 231.160156 50.933594 233.386719 51.667969 235.59375 52.457031 C 237.800781 53.246094 239.988281 54.089844 242.152344 54.988281 C 244.320312 55.886719 246.460938 56.835938 248.582031 57.835938 C 250.699219 58.839844 252.792969 59.894531 254.859375 61 C 256.929688 62.105469 258.96875 63.257812 260.980469 64.464844 C 262.988281 65.667969 264.96875 66.921875 266.917969 68.226562 C 268.867188 69.527344 270.785156 70.878906 272.667969 72.273438 C 274.550781 73.671875 276.398438 75.113281 278.210938 76.601562 C 280.023438 78.085938 281.796875 79.617188 283.535156 81.191406 C 285.273438 82.765625 286.96875 84.382812 288.625 86.039062 C 290.285156 87.699219 291.902344 89.394531 293.476562 91.132812 C 295.050781 92.871094 296.582031 94.644531 298.066406 96.457031 C 299.554688 98.269531 300.996094 100.117188 302.394531 102 C 303.789062 103.882812 305.140625 105.800781 306.441406 107.75 C 307.742188 109.699219 308.996094 111.675781 310.203125 113.6875 C 311.410156 115.699219 312.5625 117.738281 313.667969 119.804688 C 314.773438 121.875 315.828125 123.96875 316.828125 126.085938 C 317.832031 128.207031 318.78125 130.347656 319.679688 132.515625 C 320.578125 134.679688 321.421875 136.867188 322.210938 139.074219 C 323 141.28125 323.734375 143.507812 324.414062 145.75 C 325.097656 147.992188 325.722656 150.253906 326.289062 152.527344 C 326.859375 154.800781 327.375 157.085938 327.832031 159.386719 C 328.289062 161.6875 328.6875 163.996094 329.03125 166.316406 C 329.378906 168.632812 329.664062 170.960938 329.894531 173.292969 C 330.125 175.625 330.296875 177.964844 330.410156 180.304688 C 330.527344 182.644531 330.582031 184.988281 330.582031 187.332031 Z M 330.582031 187.332031"/></clipPath><clipPath id="d"><path d="M 44.082031 42.699219 L 332 42.699219 L 332 330.699219 L 44.082031 330.699219 Z M 44.082031 42.699219"/></clipPath><linearGradient x1="1770.926" gradientTransform="matrix(0 2.23305 -2.23305 0 734.06 -3910.479)" xmlns:xlink="http://www.w3.org/1999/xlink" y1="244.834" x2="1899.226" gradientUnits="userSpaceOnUse" y2="244.834" xlink:type="simple" xlink:actuate="onLoad" id="c" xlink:show="other"><stop stop-color="#1053B7" offset="0"/><stop stop-color="#1153B7" offset=".004"/><stop stop-color="#1353B6" offset=".008"/><stop stop-color="#1454B6" offset=".012"/><stop stop-color="#1654B5" offset=".016"/><stop stop-color="#1754B5" offset=".02"/><stop stop-color="#1955B5" offset=".023"/><stop stop-color="#1A55B4" offset=".027"/><stop stop-color="#1B55B4" offset=".031"/><stop stop-color="#1D56B3" offset=".035"/><stop stop-color="#1E56B3" offset=".039"/><stop stop-color="#2056B3" offset=".043"/><stop stop-color="#2156B2" offset=".047"/><stop stop-color="#2257B2" offset=".051"/><stop stop-color="#2457B1" offset=".055"/><stop stop-color="#2557B1" offset=".059"/><stop stop-color="#2758B1" offset=".063"/><stop stop-color="#2858B0" offset=".066"/><stop stop-color="#2958B0" offset=".07"/><stop stop-color="#2B59AF" offset=".074"/><stop stop-color="#2C59AF" offset=".078"/><stop stop-color="#2E59AF" offset=".082"/><stop stop-color="#2F59AE" offset=".086"/><stop stop-color="#305AAE" offset=".09"/><stop stop-color="#325AAD" offset=".094"/><stop stop-color="#335AAD" offset=".098"/><stop stop-color="#355BAD" offset=".102"/><stop stop-color="#365BAC" offset=".105"/><stop stop-color="#385BAC" offset=".109"/><stop stop-color="#395BAB" offset=".113"/><stop stop-color="#3A5CAB" offset=".117"/><stop stop-color="#3C5CAA" offset=".121"/><stop stop-color="#3D5CAA" offset=".125"/><stop stop-color="#3F5DAA" offset=".129"/><stop stop-color="#405DA9" offset=".133"/><stop stop-color="#415DA9" offset=".137"/><stop stop-color="#435EA8" offset=".141"/><stop stop-color="#445EA8" offset=".145"/><stop stop-color="#465EA8" offset=".148"/><stop stop-color="#475EA7" offset=".152"/><stop stop-color="#485FA7" offset=".156"/><stop stop-color="#4A5FA6" offset=".16"/><stop stop-color="#4B5FA6" offset=".164"/><stop stop-color="#4D60A6" offset=".168"/><stop stop-color="#4E60A5" offset=".172"/><stop stop-color="#4F60A5" offset=".176"/><stop stop-color="#5161A4" offset=".18"/><stop stop-color="#5261A4" offset=".184"/><stop stop-color="#5461A4" offset=".188"/><stop stop-color="#5561A3" offset=".191"/><stop stop-color="#5662A3" offset=".195"/><stop stop-color="#5862A2" offset=".199"/><stop stop-color="#5962A2" offset=".203"/><stop stop-color="#5B63A2" offset=".207"/><stop stop-color="#5C63A1" offset=".211"/><stop stop-color="#5E63A1" offset=".215"/><stop stop-color="#5F63A0" offset=".219"/><stop stop-color="#6064A0" offset=".223"/><stop stop-color="#6264A0" offset=".227"/><stop stop-color="#63649F" offset=".23"/><stop stop-color="#65659F" offset=".234"/><stop stop-color="#66659E" offset=".238"/><stop stop-color="#67659E" offset=".242"/><stop stop-color="#69669D" offset=".246"/><stop stop-color="#6A669D" offset=".25"/><stop stop-color="#6C669D" offset=".254"/><stop stop-color="#6D669C" offset=".258"/><stop stop-color="#6E679C" offset=".262"/><stop stop-color="#70679B" offset=".266"/><stop stop-color="#71679B" offset=".27"/><stop stop-color="#73689B" offset=".273"/><stop stop-color="#74689A" offset=".277"/><stop stop-color="#75689A" offset=".281"/><stop stop-color="#776999" offset=".285"/><stop stop-color="#786999" offset=".289"/><stop stop-color="#7A6999" offset=".293"/><stop stop-color="#7B6998" offset=".297"/><stop stop-color="#7D6A98" offset=".301"/><stop stop-color="#7E6A97" offset=".305"/><stop stop-color="#7F6A97" offset=".309"/><stop stop-color="#816B97" offset=".313"/><stop stop-color="#826B96" offset=".316"/><stop stop-color="#846B96" offset=".32"/><stop stop-color="#856B95" offset=".324"/><stop stop-color="#866C95" offset=".328"/><stop stop-color="#886C95" offset=".332"/><stop stop-color="#896C94" offset=".336"/><stop stop-color="#8B6D94" offset=".34"/><stop stop-color="#8C6D93" offset=".344"/><stop stop-color="#8D6D93" offset=".348"/><stop stop-color="#8F6E93" offset=".352"/><stop stop-color="#906E92" offset=".355"/><stop stop-color="#926E92" offset=".359"/><stop stop-color="#936E91" offset=".363"/><stop stop-color="#946F91" offset=".367"/><stop stop-color="#966F90" offset=".371"/><stop stop-color="#976F90" offset=".375"/><stop stop-color="#997090" offset=".379"/><stop stop-color="#9A708F" offset=".383"/><stop stop-color="#9C708F" offset=".387"/><stop stop-color="#9D718E" offset=".391"/><stop stop-color="#9E718E" offset=".395"/><stop stop-color="#A0718E" offset=".398"/><stop stop-color="#A1718D" offset=".402"/><stop stop-color="#A3728D" offset=".406"/><stop stop-color="#A4728C" offset=".41"/><stop stop-color="#A5728C" offset=".414"/><stop stop-color="#A7738C" offset=".418"/><stop stop-color="#A8738B" offset=".422"/><stop stop-color="#AA738B" offset=".426"/><stop stop-color="#AB738A" offset=".43"/><stop stop-color="#AC748A" offset=".434"/><stop stop-color="#AE748A" offset=".438"/><stop stop-color="#AF7489" offset=".441"/><stop stop-color="#B17589" offset=".445"/><stop stop-color="#B27588" offset=".449"/><stop stop-color="#B37588" offset=".453"/><stop stop-color="#B57688" offset=".457"/><stop stop-color="#B67687" offset=".461"/><stop stop-color="#B87687" offset=".465"/><stop stop-color="#B97686" offset=".469"/><stop stop-color="#BB7786" offset=".473"/><stop stop-color="#BC7786" offset=".477"/><stop stop-color="#BD7785" offset=".48"/><stop stop-color="#BF7885" offset=".484"/><stop stop-color="#C07884" offset=".488"/><stop stop-color="#C27884" offset=".492"/><stop stop-color="#C37983" offset=".496"/><stop stop-color="#C47983" offset=".5"/><stop stop-color="#C67983" offset=".504"/><stop stop-color="#C77982" offset=".508"/><stop stop-color="#C97A82" offset=".512"/><stop stop-color="#CA7A81" offset=".516"/><stop stop-color="#CB7A81" offset=".52"/><stop stop-color="#CD7B81" offset=".523"/><stop stop-color="#CE7B80" offset=".527"/><stop stop-color="#D07B80" offset=".531"/><stop stop-color="#D17B7F" offset=".535"/><stop stop-color="#D27C7F" offset=".539"/><stop stop-color="#D47C7F" offset=".543"/><stop stop-color="#D57C7E" offset=".547"/><stop stop-color="#D77D7E" offset=".551"/><stop stop-color="#D87D7D" offset=".555"/><stop stop-color="#D97D7D" offset=".559"/><stop stop-color="#DB7E7D" offset=".563"/><stop stop-color="#DC7E7C" offset=".566"/><stop stop-color="#DE7E7C" offset=".57"/><stop stop-color="#DF7E7B" offset=".574"/><stop stop-color="#E17F7B" offset=".578"/><stop stop-color="#E27F7B" offset=".582"/><stop stop-color="#E37F7A" offset=".586"/><stop stop-color="#E5807A" offset=".59"/><stop stop-color="#E68079" offset=".594"/><stop stop-color="#E88079" offset=".598"/><stop stop-color="#E98179" offset=".602"/><stop stop-color="#EA8178" offset=".605"/><stop stop-color="#EC8178" offset=".609"/><stop stop-color="#ED8177" offset=".613"/><stop stop-color="#EF8277" offset=".617"/><stop stop-color="#F08276" offset=".621"/><stop stop-color="#F18276" offset=".625"/><stop stop-color="#F38376" offset=".629"/><stop stop-color="#F48375" offset=".633"/><stop stop-color="#F58476" offset=".637"/><stop stop-color="#F58476" offset=".641"/><stop stop-color="#F58577" offset=".645"/><stop stop-color="#F58677" offset=".648"/><stop stop-color="#F68778" offset=".652"/><stop stop-color="#F68879" offset=".656"/><stop stop-color="#F6897A" offset=".66"/><stop stop-color="#F68A7A" offset=".664"/><stop stop-color="#F68B7B" offset=".668"/><stop stop-color="#F68C7C" offset=".672"/><stop stop-color="#F68D7C" offset=".676"/><stop stop-color="#F68E7D" offset=".68"/><stop stop-color="#F68F7E" offset=".684"/><stop stop-color="#F7907E" offset=".688"/><stop stop-color="#F7917F" offset=".691"/><stop stop-color="#F79280" offset=".695"/><stop stop-color="#F79381" offset=".699"/><stop stop-color="#F79381" offset=".703"/><stop stop-color="#F79482" offset=".707"/><stop stop-color="#F79583" offset=".711"/><stop stop-color="#F79683" offset=".715"/><stop stop-color="#F79784" offset=".719"/><stop stop-color="#F79885" offset=".723"/><stop stop-color="#F89985" offset=".727"/><stop stop-color="#F89A86" offset=".73"/><stop stop-color="#F89B87" offset=".734"/><stop stop-color="#F89C88" offset=".738"/><stop stop-color="#F89D88" offset=".742"/><stop stop-color="#F89E89" offset=".746"/><stop stop-color="#F89F8A" offset=".75"/><stop stop-color="#F8A08A" offset=".754"/><stop stop-color="#F8A18B" offset=".758"/><stop stop-color="#F9A28C" offset=".762"/><stop stop-color="#F9A38C" offset=".766"/><stop stop-color="#F9A38D" offset=".77"/><stop stop-color="#F9A48E" offset=".773"/><stop stop-color="#F9A58F" offset=".777"/><stop stop-color="#F9A68F" offset=".781"/><stop stop-color="#F9A790" offset=".785"/><stop stop-color="#F9A891" offset=".789"/><stop stop-color="#F9A991" offset=".793"/><stop stop-color="#FAAA92" offset=".797"/><stop stop-color="#FAAB93" offset=".801"/><stop stop-color="#FAAC93" offset=".805"/><stop stop-color="#FAAD94" offset=".809"/><stop stop-color="#FAAE95" offset=".813"/><stop stop-color="#FAAF96" offset=".816"/><stop stop-color="#FAB096" offset=".82"/><stop stop-color="#FAB197" offset=".824"/><stop stop-color="#FAB298" offset=".828"/><stop stop-color="#FBB298" offset=".832"/><stop stop-color="#FBB399" offset=".836"/><stop stop-color="#FBB49A" offset=".84"/><stop stop-color="#FBB59A" offset=".844"/><stop stop-color="#FBB69B" offset=".848"/><stop stop-color="#FBB79C" offset=".852"/><stop stop-color="#FBB89D" offset=".855"/><stop stop-color="#FBB99D" offset=".859"/><stop stop-color="#FBBA9E" offset=".863"/><stop stop-color="#FCBB9F" offset=".867"/><stop stop-color="#FCBC9F" offset=".871"/><stop stop-color="#FCBDA0" offset=".875"/><stop stop-color="#FCBEA1" offset=".879"/><stop stop-color="#FCBFA1" offset=".883"/><stop stop-color="#FCC0A2" offset=".887"/><stop stop-color="#FCC1A3" offset=".891"/><stop stop-color="#FCC2A4" offset=".895"/><stop stop-color="#FCC2A4" offset=".898"/><stop stop-color="#FDC3A5" offset=".902"/><stop stop-color="#FDC4A6" offset=".906"/><stop stop-color="#FDC5A6" offset=".91"/><stop stop-color="#FDC6A7" offset=".914"/><stop stop-color="#FDC7A8" offset=".918"/><stop stop-color="#FDC8A8" offset=".922"/><stop stop-color="#FDC9A9" offset=".926"/><stop stop-color="#FDCAAA" offset=".93"/><stop stop-color="#FDCBAB" offset=".934"/><stop stop-color="#FDCCAB" offset=".938"/><stop stop-color="#FECDAC" offset=".941"/><stop stop-color="#FECEAD" offset=".945"/><stop stop-color="#FECFAD" offset=".949"/><stop stop-color="#FED0AE" offset=".953"/><stop stop-color="#FED1AF" offset=".957"/><stop stop-color="#FED2AF" offset=".961"/><stop stop-color="#FED2B0" offset=".965"/><stop stop-color="#FED3B1" offset=".969"/><stop stop-color="#FED4B2" offset=".973"/><stop stop-color="#FFD5B2" offset=".977"/><stop stop-color="#FFD6B3" offset=".98"/><stop stop-color="#FFD7B4" offset=".984"/><stop stop-color="#FFD8B4" offset=".988"/><stop stop-color="#FFD9B5" offset=".992"/><stop stop-color="#FFD9B5" offset="1"/></linearGradient></defs><g clip-path="url(#a)"><g clip-path="url(#b)"><path fill="url(#c)" d="M 330.582031 44.082031 L 44.082031 44.082031 L 44.082031 330.582031 L 330.582031 330.582031 Z M 330.582031 44.082031"/></g></g><g fill="#032364"><g><g><path d="M 45.808594 2.285156 C 65.933594 2.285156 81.773438 -10.847656 85.339844 -30.253906 L 64.363281 -30.253906 C 60.792969 -21.976562 54.230469 -17.410156 45.808594 -17.410156 C 34.679688 -17.410156 25.972656 -26.6875 25.972656 -38.53125 C 25.972656 -50.519531 34.535156 -59.652344 45.808594 -59.652344 C 54.085938 -59.652344 61.078125 -55.085938 64.363281 -47.523438 L 85.054688 -47.523438 C 81.34375 -66.503906 65.933594 -79.203125 45.953125 -79.203125 C 22.546875 -79.203125 4.851562 -61.792969 4.851562 -38.675781 C 4.851562 -15.554688 22.546875 2.285156 45.808594 2.285156 Z M 45.808594 2.285156" transform="translate(73.342 226.5)"/></g></g></g><g fill="#032364"><g><g><path d="M 133.71875 0 L 118.304688 -99.898438 L 96.613281 -99.898438 L 69.5 -38.53125 L 42.386719 -99.898438 L 20.835938 -99.898438 L 5.136719 0 L 27.113281 0 L 36.960938 -65.074219 L 66.789062 -0.144531 L 72.070312 -0.144531 L 101.894531 -65.074219 L 111.742188 0 Z M 133.71875 0" transform="translate(162.529 226.5)"/></g></g></g><g clip-path="url(#d)"><path fill="#032364" d="M 188.035156 330.699219 C 108.699219 330.699219 44.082031 266.082031 44.082031 186.648438 C 44.082031 107.21875 108.699219 42.699219 188.035156 42.699219 C 267.367188 42.699219 331.984375 107.316406 331.984375 186.648438 C 332.082031 266.082031 267.464844 330.699219 188.035156 330.699219 Z M 188.035156 45.132812 C 109.96875 45.132812 46.519531 108.582031 46.519531 186.648438 C 46.519531 264.714844 110.066406 328.261719 188.035156 328.261719 C 266.003906 328.261719 329.648438 264.714844 329.648438 186.648438 C 329.648438 108.582031 266.101562 45.132812 188.035156 45.132812 Z M 188.035156 45.132812"/></g></svg>