<svg xmlns="http://www.w3.org/2000/svg" xmlns:xlink="http://www.w3.org/1999/xlink" width="375" viewBox="0 0 375 375" height="375" version="1.0"><defs><clipPath id="a"><path d="M 44.410156 44.410156 L 330.910156 44.410156 L 330.910156 330.910156 L 44.410156 330.910156 Z M 44.410156 44.410156"/></clipPath><clipPath id="b"><path d="M 44.410156 187.660156 C 44.410156 185.316406 44.46875 182.972656 44.585938 180.632812 C 44.699219 178.292969 44.871094 175.953125 45.101562 173.621094 C 45.332031 171.289062 45.617188 168.960938 45.960938 166.644531 C 46.304688 164.324219 46.707031 162.015625 47.164062 159.714844 C 47.621094 157.414062 48.136719 155.128906 48.703125 152.855469 C 49.273438 150.582031 49.898438 148.320312 50.578125 146.078125 C 51.261719 143.835938 51.996094 141.609375 52.785156 139.402344 C 53.574219 137.195312 54.417969 135.007812 55.316406 132.84375 C 56.214844 130.675781 57.164062 128.535156 58.164062 126.414062 C 59.167969 124.296875 60.222656 122.203125 61.328125 120.132812 C 62.433594 118.066406 63.585938 116.027344 64.792969 114.015625 C 65.996094 112.003906 67.25 110.027344 68.554688 108.078125 C 69.855469 106.128906 71.207031 104.210938 72.601562 102.328125 C 74 100.445312 75.441406 98.597656 76.929688 96.785156 C 78.414062 94.972656 79.945312 93.199219 81.519531 91.460938 C 83.09375 89.722656 84.710938 88.027344 86.367188 86.367188 C 88.027344 84.710938 89.722656 83.09375 91.460938 81.519531 C 93.199219 79.945312 94.972656 78.414062 96.785156 76.929688 C 98.597656 75.441406 100.445312 74 102.328125 72.601562 C 104.210938 71.207031 106.128906 69.855469 108.078125 68.554688 C 110.027344 67.25 112.003906 65.996094 114.015625 64.792969 C 116.027344 63.585938 118.066406 62.433594 120.132812 61.328125 C 122.203125 60.222656 124.296875 59.167969 126.414062 58.164062 C 128.535156 57.164062 130.675781 56.214844 132.84375 55.316406 C 135.007812 54.417969 137.195312 53.574219 139.402344 52.785156 C 141.609375 51.996094 143.835938 51.261719 146.078125 50.582031 C 148.320312 49.898438 150.582031 49.273438 152.855469 48.703125 C 155.128906 48.136719 157.414062 47.621094 159.714844 47.164062 C 162.015625 46.707031 164.324219 46.304688 166.644531 45.960938 C 168.960938 45.617188 171.289062 45.332031 173.621094 45.101562 C 175.953125 44.871094 178.292969 44.699219 180.632812 44.585938 C 182.972656 44.46875 185.316406 44.410156 187.660156 44.410156 C 190.007812 44.410156 192.347656 44.46875 194.691406 44.585938 C 197.03125 44.699219 199.371094 44.871094 201.703125 45.101562 C 204.035156 45.332031 206.363281 45.617188 208.679688 45.960938 C 211 46.304688 213.308594 46.707031 215.609375 47.164062 C 217.90625 47.621094 220.195312 48.136719 222.46875 48.703125 C 224.742188 49.273438 227 49.898438 229.246094 50.578125 C 231.488281 51.261719 233.714844 51.996094 235.921875 52.785156 C 238.128906 53.574219 240.316406 54.417969 242.480469 55.316406 C 244.648438 56.214844 246.789062 57.164062 248.910156 58.164062 C 251.027344 59.167969 253.121094 60.222656 255.1875 61.328125 C 257.257812 62.433594 259.296875 63.585938 261.308594 64.792969 C 263.316406 65.996094 265.296875 67.25 267.246094 68.554688 C 269.195312 69.855469 271.113281 71.207031 272.996094 72.601562 C 274.878906 74 276.726562 75.441406 278.539062 76.929688 C 280.351562 78.414062 282.125 79.945312 283.863281 81.519531 C 285.601562 83.09375 287.296875 84.710938 288.953125 86.367188 C 290.613281 88.027344 292.230469 89.722656 293.804688 91.460938 C 295.378906 93.199219 296.910156 94.972656 298.394531 96.785156 C 299.882812 98.597656 301.324219 100.445312 302.722656 102.328125 C 304.117188 104.210938 305.46875 106.128906 306.769531 108.078125 C 308.070312 110.027344 309.324219 112.003906 310.53125 114.015625 C 311.738281 116.027344 312.890625 118.066406 313.996094 120.132812 C 315.101562 122.203125 316.15625 124.296875 317.160156 126.414062 C 318.160156 128.535156 319.109375 130.675781 320.007812 132.84375 C 320.90625 135.007812 321.75 137.195312 322.539062 139.402344 C 323.328125 141.609375 324.0625 143.835938 324.742188 146.078125 C 325.425781 148.320312 326.050781 150.582031 326.617188 152.855469 C 327.1875 155.128906 327.703125 157.414062 328.160156 159.714844 C 328.617188 162.015625 329.015625 164.324219 329.359375 166.644531 C 329.707031 168.960938 329.992188 171.289062 330.222656 173.621094 C 330.453125 175.953125 330.625 178.292969 330.738281 180.632812 C 330.855469 182.972656 330.910156 185.316406 330.910156 187.660156 C 330.910156 190.007812 330.855469 192.347656 330.738281 194.691406 C 330.625 197.03125 330.453125 199.371094 330.222656 201.703125 C 329.992188 204.035156 329.707031 206.363281 329.359375 208.679688 C 329.015625 211 328.617188 213.308594 328.160156 215.609375 C 327.703125 217.90625 327.1875 220.195312 326.617188 222.46875 C 326.050781 224.742188 325.425781 227 324.742188 229.246094 C 324.0625 231.488281 323.328125 233.714844 322.539062 235.921875 C 321.75 238.128906 320.90625 240.316406 320.007812 242.480469 C 319.109375 244.648438 318.160156 246.789062 317.160156 248.910156 C 316.15625 251.027344 315.101562 253.121094 313.996094 255.1875 C 312.890625 257.257812 311.738281 259.296875 310.53125 261.308594 C 309.324219 263.316406 308.070312 265.296875 306.769531 267.246094 C 305.46875 269.195312 304.117188 271.113281 302.722656 272.996094 C 301.324219 274.878906 299.882812 276.726562 298.394531 278.539062 C 296.910156 280.351562 295.378906 282.125 293.804688 283.863281 C 292.230469 285.601562 290.613281 287.296875 288.953125 288.953125 C 287.296875 290.613281 285.601562 292.230469 283.863281 293.804688 C 282.125 295.378906 280.351562 296.910156 278.539062 298.394531 C 276.726562 299.882812 274.878906 301.324219 272.996094 302.722656 C 271.113281 304.117188 269.195312 305.46875 267.246094 306.769531 C 265.296875 308.070312 263.316406 309.324219 261.308594 310.53125 C 259.296875 311.738281 257.257812 312.890625 255.1875 313.996094 C 253.121094 315.101562 251.027344 316.15625 248.910156 317.160156 C 246.789062 318.160156 244.648438 319.109375 242.480469 320.007812 C 240.316406 320.90625 238.128906 321.75 235.921875 322.539062 C 233.714844 323.328125 231.488281 324.0625 229.246094 324.742188 C 227 325.425781 224.742188 326.050781 222.46875 326.617188 C 220.195312 327.1875 217.90625 327.703125 215.609375 328.160156 C 213.308594 328.617188 211 329.015625 208.679688 329.359375 C 206.363281 329.707031 204.035156 329.992188 201.703125 330.222656 C 199.371094 330.453125 197.03125 330.625 194.691406 330.738281 C 192.347656 330.855469 190.007812 330.910156 187.660156 330.910156 C 185.316406 330.910156 182.972656 330.855469 180.632812 330.738281 C 178.292969 330.625 175.953125 330.453125 173.621094 330.222656 C 171.289062 329.992188 168.960938 329.707031 166.644531 329.359375 C 164.324219 329.015625 162.015625 328.617188 159.714844 328.160156 C 157.414062 327.703125 155.128906 327.1875 152.855469 326.617188 C 150.582031 326.050781 148.320312 325.425781 146.078125 324.742188 C 143.835938 324.0625 141.609375 323.328125 139.402344 322.539062 C 137.195312 321.75 135.007812 320.90625 132.84375 320.007812 C 130.675781 319.109375 128.535156 318.160156 126.414062 317.160156 C 124.296875 316.15625 122.203125 315.101562 120.132812 313.996094 C 118.066406 312.890625 116.027344 311.738281 114.015625 310.53125 C 112.003906 309.324219 110.027344 308.070312 108.078125 306.769531 C 106.128906 305.46875 104.210938 304.117188 102.328125 302.722656 C 100.445312 301.324219 98.597656 299.882812 96.785156 298.394531 C 94.972656 296.910156 93.199219 295.378906 91.460938 293.804688 C 89.722656 292.230469 88.027344 290.613281 86.367188 288.953125 C 84.710938 287.296875 83.09375 285.601562 81.519531 283.863281 C 79.945312 282.125 78.414062 280.351562 76.929688 278.539062 C 75.441406 276.726562 74 274.878906 72.601562 272.996094 C 71.207031 271.113281 69.855469 269.195312 68.554688 267.246094 C 67.25 265.296875 65.996094 263.316406 64.792969 261.308594 C 63.585938 259.296875 62.433594 257.257812 61.328125 255.1875 C 60.222656 253.121094 59.167969 251.027344 58.164062 248.910156 C 57.164062 246.789062 56.214844 244.648438 55.316406 242.480469 C 54.417969 240.316406 53.574219 238.128906 52.785156 235.921875 C 51.996094 233.714844 51.261719 231.488281 50.582031 229.246094 C 49.898438 227 49.273438 224.742188 48.703125 222.46875 C 48.136719 220.195312 47.621094 217.90625 47.164062 215.609375 C 46.707031 213.308594 46.304688 211 45.960938 208.679688 C 45.617188 206.363281 45.332031 204.035156 45.101562 201.703125 C 44.871094 199.371094 44.699219 197.03125 44.585938 194.691406 C 44.46875 192.347656 44.410156 190.007812 44.410156 187.660156 Z M 44.410156 187.660156"/></clipPath><clipPath id="d"><path d="M 44.082031 42.699219 L 332 42.699219 L 332 330.699219 L 44.082031 330.699219 Z M 44.082031 42.699219"/></clipPath><linearGradient x1="1770.926" gradientTransform="matrix(0 -2.23305 2.23305 0 -359.064 4285.474)" xmlns:xlink="http://www.w3.org/1999/xlink" y1="244.834" x2="1899.226" gradientUnits="userSpaceOnUse" y2="244.834" xlink:type="simple" xlink:actuate="onLoad" id="c" xlink:show="other"><stop stop-color="#1053B7" offset="0"/><stop stop-color="#1153B7" offset=".004"/><stop stop-color="#1353B6" offset=".008"/><stop stop-color="#1454B6" offset=".012"/><stop stop-color="#1654B5" offset=".016"/><stop stop-color="#1754B5" offset=".02"/><stop stop-color="#1955B5" offset=".023"/><stop stop-color="#1A55B4" offset=".027"/><stop stop-color="#1B55B4" offset=".031"/><stop stop-color="#1D56B3" offset=".035"/><stop stop-color="#1E56B3" offset=".039"/><stop stop-color="#2056B3" offset=".043"/><stop stop-color="#2156B2" offset=".047"/><stop stop-color="#2257B2" offset=".051"/><stop stop-color="#2457B1" offset=".055"/><stop stop-color="#2557B1" offset=".059"/><stop stop-color="#2758B1" offset=".063"/><stop stop-color="#2858B0" offset=".066"/><stop stop-color="#2958B0" offset=".07"/><stop stop-color="#2B59AF" offset=".074"/><stop stop-color="#2C59AF" offset=".078"/><stop stop-color="#2E59AF" offset=".082"/><stop stop-color="#2F59AE" offset=".086"/><stop stop-color="#305AAE" offset=".09"/><stop stop-color="#325AAD" offset=".094"/><stop stop-color="#335AAD" offset=".098"/><stop stop-color="#355BAD" offset=".102"/><stop stop-color="#365BAC" offset=".105"/><stop stop-color="#385BAC" offset=".109"/><stop stop-color="#395BAB" offset=".113"/><stop stop-color="#3A5CAB" offset=".117"/><stop stop-color="#3C5CAA" offset=".121"/><stop stop-color="#3D5CAA" offset=".125"/><stop stop-color="#3F5DAA" offset=".129"/><stop stop-color="#405DA9" offset=".133"/><stop stop-color="#415DA9" offset=".137"/><stop stop-color="#435EA8" offset=".141"/><stop stop-color="#445EA8" offset=".145"/><stop stop-color="#465EA8" offset=".148"/><stop stop-color="#475EA7" offset=".152"/><stop stop-color="#485FA7" offset=".156"/><stop stop-color="#4A5FA6" offset=".16"/><stop stop-color="#4B5FA6" offset=".164"/><stop stop-color="#4D60A6" offset=".168"/><stop stop-color="#4E60A5" offset=".172"/><stop stop-color="#4F60A5" offset=".176"/><stop stop-color="#5161A4" offset=".18"/><stop stop-color="#5261A4" offset=".184"/><stop stop-color="#5461A4" offset=".188"/><stop stop-color="#5561A3" offset=".191"/><stop stop-color="#5662A3" offset=".195"/><stop stop-color="#5862A2" offset=".199"/><stop stop-color="#5962A2" offset=".203"/><stop stop-color="#5B63A2" offset=".207"/><stop stop-color="#5C63A1" offset=".211"/><stop stop-color="#5E63A1" offset=".215"/><stop stop-color="#5F63A0" offset=".219"/><stop stop-color="#6064A0" offset=".223"/><stop stop-color="#6264A0" offset=".227"/><stop stop-color="#63649F" offset=".23"/><stop stop-color="#65659F" offset=".234"/><stop stop-color="#66659E" offset=".238"/><stop stop-color="#67659E" offset=".242"/><stop stop-color="#69669D" offset=".246"/><stop stop-color="#6A669D" offset=".25"/><stop stop-color="#6C669D" offset=".254"/><stop stop-color="#6D669C" offset=".258"/><stop stop-color="#6E679C" offset=".262"/><stop stop-color="#70679B" offset=".266"/><stop stop-color="#71679B" offset=".27"/><stop stop-color="#73689B" offset=".273"/><stop stop-color="#74689A" offset=".277"/><stop stop-color="#75689A" offset=".281"/><stop stop-color="#776999" offset=".285"/><stop stop-color="#786999" offset=".289"/><stop stop-color="#7A6999" offset=".293"/><stop stop-color="#7B6998" offset=".297"/><stop stop-color="#7D6A98" offset=".301"/><stop stop-color="#7E6A97" offset=".305"/><stop stop-color="#7F6A97" offset=".309"/><stop stop-color="#816B97" offset=".313"/><stop stop-color="#826B96" offset=".316"/><stop stop-color="#846B96" offset=".32"/><stop stop-color="#856B95" offset=".324"/><stop stop-color="#866C95" offset=".328"/><stop stop-color="#886C95" offset=".332"/><stop stop-color="#896C94" offset=".336"/><stop stop-color="#8B6D94" offset=".34"/><stop stop-color="#8C6D93" offset=".344"/><stop stop-color="#8D6D93" offset=".348"/><stop stop-color="#8F6E93" offset=".352"/><stop stop-color="#906E92" offset=".355"/><stop stop-color="#926E92" offset=".359"/><stop stop-color="#936E91" offset=".363"/><stop stop-color="#946F91" offset=".367"/><stop stop-color="#966F90" offset=".371"/><stop stop-color="#976F90" offset=".375"/><stop stop-color="#997090" offset=".379"/><stop stop-color="#9A708F" offset=".383"/><stop stop-color="#9C708F" offset=".387"/><stop stop-color="#9D718E" offset=".391"/><stop stop-color="#9E718E" offset=".395"/><stop stop-color="#A0718E" offset=".398"/><stop stop-color="#A1718D" offset=".402"/><stop stop-color="#A3728D" offset=".406"/><stop stop-color="#A4728C" offset=".41"/><stop stop-color="#A5728C" offset=".414"/><stop stop-color="#A7738C" offset=".418"/><stop stop-color="#A8738B" offset=".422"/><stop stop-color="#AA738B" offset=".426"/><stop stop-color="#AB738A" offset=".43"/><stop stop-color="#AC748A" offset=".434"/><stop stop-color="#AE748A" offset=".438"/><stop stop-color="#AF7489" offset=".441"/><stop stop-color="#B17589" offset=".445"/><stop stop-color="#B27588" offset=".449"/><stop stop-color="#B37588" offset=".453"/><stop stop-color="#B57688" offset=".457"/><stop stop-color="#B67687" offset=".461"/><stop stop-color="#B87687" offset=".465"/><stop stop-color="#B97686" offset=".469"/><stop stop-color="#BB7786" offset=".473"/><stop stop-color="#BC7786" offset=".477"/><stop stop-color="#BD7785" offset=".48"/><stop stop-color="#BF7885" offset=".484"/><stop stop-color="#C07884" offset=".488"/><stop stop-color="#C27884" offset=".492"/><stop stop-color="#C37983" offset=".496"/><stop stop-color="#C47983" offset=".5"/><stop stop-color="#C67983" offset=".504"/><stop stop-color="#C77982" offset=".508"/><stop stop-color="#C97A82" offset=".512"/><stop stop-color="#CA7A81" offset=".516"/><stop stop-color="#CB7A81" offset=".52"/><stop stop-color="#CD7B81" offset=".523"/><stop stop-color="#CE7B80" offset=".527"/><stop stop-color="#D07B80" offset=".531"/><stop stop-color="#D17B7F" offset=".535"/><stop stop-color="#D27C7F" offset=".539"/><stop stop-color="#D47C7F" offset=".543"/><stop stop-color="#D57C7E" offset=".547"/><stop stop-color="#D77D7E" offset=".551"/><stop stop-color="#D87D7D" offset=".555"/><stop stop-color="#D97D7D" offset=".559"/><stop stop-color="#DB7E7D" offset=".563"/><stop stop-color="#DC7E7C" offset=".566"/><stop stop-color="#DE7E7C" offset=".57"/><stop stop-color="#DF7E7B" offset=".574"/><stop stop-color="#E17F7B" offset=".578"/><stop stop-color="#E27F7B" offset=".582"/><stop stop-color="#E37F7A" offset=".586"/><stop stop-color="#E5807A" offset=".59"/><stop stop-color="#E68079" offset=".594"/><stop stop-color="#E88079" offset=".598"/><stop stop-color="#E98179" offset=".602"/><stop stop-color="#EA8178" offset=".605"/><stop stop-color="#EC8178" offset=".609"/><stop stop-color="#ED8177" offset=".613"/><stop stop-color="#EF8277" offset=".617"/><stop stop-color="#F08276" offset=".621"/><stop stop-color="#F18276" offset=".625"/><stop stop-color="#F38376" offset=".629"/><stop stop-color="#F48375" offset=".633"/><stop stop-color="#F58476" offset=".637"/><stop stop-color="#F58476" offset=".641"/><stop stop-color="#F58577" offset=".645"/><stop stop-color="#F58677" offset=".648"/><stop stop-color="#F68778" offset=".652"/><stop stop-color="#F68879" offset=".656"/><stop stop-color="#F6897A" offset=".66"/><stop stop-color="#F68A7A" offset=".664"/><stop stop-color="#F68B7B" offset=".668"/><stop stop-color="#F68C7C" offset=".672"/><stop stop-color="#F68D7C" offset=".676"/><stop stop-color="#F68E7D" offset=".68"/><stop stop-color="#F68F7E" offset=".684"/><stop stop-color="#F7907E" offset=".688"/><stop stop-color="#F7917F" offset=".691"/><stop stop-color="#F79280" offset=".695"/><stop stop-color="#F79381" offset=".699"/><stop stop-color="#F79381" offset=".703"/><stop stop-color="#F79482" offset=".707"/><stop stop-color="#F79583" offset=".711"/><stop stop-color="#F79683" offset=".715"/><stop stop-color="#F79784" offset=".719"/><stop stop-color="#F79885" offset=".723"/><stop stop-color="#F89985" offset=".727"/><stop stop-color="#F89A86" offset=".73"/><stop stop-color="#F89B87" offset=".734"/><stop stop-color="#F89C88" offset=".738"/><stop stop-color="#F89D88" offset=".742"/><stop stop-color="#F89E89" offset=".746"/><stop stop-color="#F89F8A" offset=".75"/><stop stop-color="#F8A08A" offset=".754"/><stop stop-color="#F8A18B" offset=".758"/><stop stop-color="#F9A28C" offset=".762"/><stop stop-color="#F9A38C" offset=".766"/><stop stop-color="#F9A38D" offset=".77"/><stop stop-color="#F9A48E" offset=".773"/><stop stop-color="#F9A58F" offset=".777"/><stop stop-color="#F9A68F" offset=".781"/><stop stop-color="#F9A790" offset=".785"/><stop stop-color="#F9A891" offset=".789"/><stop stop-color="#F9A991" offset=".793"/><stop stop-color="#FAAA92" offset=".797"/><stop stop-color="#FAAB93" offset=".801"/><stop stop-color="#FAAC93" offset=".805"/><stop stop-color="#FAAD94" offset=".809"/><stop stop-color="#FAAE95" offset=".813"/><stop stop-color="#FAAF96" offset=".816"/><stop stop-color="#FAB096" offset=".82"/><stop stop-color="#FAB197" offset=".824"/><stop stop-color="#FAB298" offset=".828"/><stop stop-color="#FBB298" offset=".832"/><stop stop-color="#FBB399" offset=".836"/><stop stop-color="#FBB49A" offset=".84"/><stop stop-color="#FBB59A" offset=".844"/><stop stop-color="#FBB69B" offset=".848"/><stop stop-color="#FBB79C" offset=".852"/><stop stop-color="#FBB89D" offset=".855"/><stop stop-color="#FBB99D" offset=".859"/><stop stop-color="#FBBA9E" offset=".863"/><stop stop-color="#FCBB9F" offset=".867"/><stop stop-color="#FCBC9F" offset=".871"/><stop stop-color="#FCBDA0" offset=".875"/><stop stop-color="#FCBEA1" offset=".879"/><stop stop-color="#FCBFA1" offset=".883"/><stop stop-color="#FCC0A2" offset=".887"/><stop stop-color="#FCC1A3" offset=".891"/><stop stop-color="#FCC2A4" offset=".895"/><stop stop-color="#FCC2A4" offset=".898"/><stop stop-color="#FDC3A5" offset=".902"/><stop stop-color="#FDC4A6" offset=".906"/><stop stop-color="#FDC5A6" offset=".91"/><stop stop-color="#FDC6A7" offset=".914"/><stop stop-color="#FDC7A8" offset=".918"/><stop stop-color="#FDC8A8" offset=".922"/><stop stop-color="#FDC9A9" offset=".926"/><stop stop-color="#FDCAAA" offset=".93"/><stop stop-color="#FDCBAB" offset=".934"/><stop stop-color="#FDCCAB" offset=".938"/><stop stop-color="#FECDAC" offset=".941"/><stop stop-color="#FECEAD" offset=".945"/><stop stop-color="#FECFAD" offset=".949"/><stop stop-color="#FED0AE" offset=".953"/><stop stop-color="#FED1AF" offset=".957"/><stop stop-color="#FED2AF" offset=".961"/><stop stop-color="#FED2B0" offset=".965"/><stop stop-color="#FED3B1" offset=".969"/><stop stop-color="#FED4B2" offset=".973"/><stop stop-color="#FFD5B2" offset=".977"/><stop stop-color="#FFD6B3" offset=".98"/><stop stop-color="#FFD7B4" offset=".984"/><stop stop-color="#FFD8B4" offset=".988"/><stop stop-color="#FFD9B5" offset=".992"/><stop stop-color="#FFD9B5" offset="1"/></linearGradient></defs><g clip-path="url(#a)"><g clip-path="url(#b)"><path fill="url(#c)" d="M 44.410156 330.910156 L 330.910156 330.910156 L 330.910156 44.410156 L 44.410156 44.410156 Z M 44.410156 330.910156"/></g></g><g fill="#032364"><g><g><path d="M 60.507812 -77.0625 L 41.957031 -25.402344 L 23.117188 -77.0625 L 0.855469 -77.0625 L 32.253906 0 L 51.519531 0 L 82.058594 -77.0625 Z M 60.507812 -77.0625" transform="translate(76.271 226.5)"/></g></g></g><g fill="#032364"><g><g><path d="M 133.71875 0 L 118.304688 -99.898438 L 96.613281 -99.898438 L 69.5 -38.53125 L 42.386719 -99.898438 L 20.835938 -99.898438 L 5.136719 0 L 27.113281 0 L 36.960938 -65.074219 L 66.789062 -0.144531 L 72.070312 -0.144531 L 101.894531 -65.074219 L 111.742188 0 Z M 133.71875 0" transform="translate(159.608 226.5)"/></g></g></g><g clip-path="url(#d)"><path fill="#032364" d="M 188.035156 330.699219 C 108.699219 330.699219 44.082031 266.082031 44.082031 186.648438 C 44.082031 107.21875 108.699219 42.699219 188.035156 42.699219 C 267.367188 42.699219 331.984375 107.316406 331.984375 186.648438 C 332.082031 266.082031 267.464844 330.699219 188.035156 330.699219 Z M 188.035156 45.132812 C 109.96875 45.132812 46.519531 108.582031 46.519531 186.648438 C 46.519531 264.714844 110.066406 328.261719 188.035156 328.261719 C 266.003906 328.261719 329.648438 264.714844 329.648438 186.648438 C 329.648438 108.582031 266.101562 45.132812 188.035156 45.132812 Z M 188.035156 45.132812"/></g></svg>